PathFileType  4	(X/Y/Z) C:\Users\antoi\Documents\MyRepositories\mobilecap\ResultsAnalysis
DataRate	CameraRate	NumFrames	NumMarkers	Units	OrigDataRate	OrigDataStartFrame	OrigNumFrames
100.0	100.0	7	51	mm	100.0	34	135
Frame#	Time	r_knee			r_shank_antsup			r_ankle			r_calc			r_5meta			r_toe			L_knee			L_shank_antsup			L_ankle			L_calc			L_5meta			L_toe			r_sh2			r_sh3			r_sh4			L_sh2			L_sh3			r_thigh1			r_thigh2			r_thigh3			r_thigh4			r_thigh5			L_thigh1			L_thigh2			L_thigh3			L_thigh4			r.ASIS			r.PSIS			L.ASIS			L.PSIS			C7			R_Shoulder			L_Shoulder			R_Sternum			L_Sternum			R_humerus			R_elbow_med			R_elbow_lat			R_forearm			R_wrist_radius			R_wrist_ulna			L_humerus			L_elbow_med			L_elbow_lat			L_forearm			L_wrist_radius			L_wrist_ulna			R_HJC			L_HJC			R_HJC_reg			L_HJC_reg			
		X1	Y1	Z1	X2	Y2	Z2	X3	Y3	Z3	X4	Y4	Z4	X5	Y5	Z5	X6	Y6	Z6	X7	Y7	Z7	X8	Y8	Z8	X9	Y9	Z9	X10	Y10	Z10	X11	Y11	Z11	X12	Y12	Z12	X13	Y13	Z13	X14	Y14	Z14	X15	Y15	Z15	X16	Y16	Z16	X17	Y17	Z17	X18	Y18	Z18	X19	Y19	Z19	X20	Y20	Z20	X21	Y21	Z21	X22	Y22	Z22	X23	Y23	Z23	X24	Y24	Z24	X25	Y25	Z25	X26	Y26	Z26	X27	Y27	Z27	X28	Y28	Z28	X29	Y29	Z29	X30	Y30	Z30	X31	Y31	Z31	X32	Y32	Z32	X33	Y33	Z33	X34	Y34	Z34	X35	Y35	Z35	X36	Y36	Z36	X37	Y37	Z37	X38	Y38	Z38	X39	Y39	Z39	X40	Y40	Z40	X41	Y41	Z41	X42	Y42	Z42	X43	Y43	Z43	X44	Y44	Z44	X45	Y45	Z45	X46	Y46	Z46	X47	Y47	Z47	X48	Y48	Z48	X49	Y49	Z49	X50	Y50	Z50	X51	Y51	Z51	

34	0.33000000	288.47705	492.25595	-39.59367	318.64785	420.08751	-59.56224	210.96820	98.17135	-103.79012	146.36276	69.58960	-150.06331	306.26636	44.18805	-54.99976	364.25343	70.08637	-103.12752	461.40110	529.36951	-324.78923	462.32466	431.82116	-329.72281	274.51407	185.09736	-287.96249	202.44212	183.18467	-232.07725	333.09396	79.10057	-328.75218	389.71792	87.76871	-283.19732	282.20750	308.92783	-48.64527	240.28785	438.50013	-34.53841	209.93294	330.44679	-46.07724	387.37383	481.15630	-322.89911	330.09680	372.67187	-322.60565	368.77757	805.00726	16.50982	361.37017	692.58293	1.96939	303.39523	671.31750	23.47846	256.81736	807.59932	39.78106	250.53281	692.22228	13.86066	377.16817	782.04329	-352.71948	446.08238	662.65398	-342.84926	286.21368	729.25045	-303.69132	359.89259	609.94701	-299.31642	383.69667	978.13342	-19.71919	190.25975	1014.90751	-92.21687	377.02690	962.20366	-270.25344	178.16376	1014.41364	-192.01462	177.52857	1417.66709	-152.40847	304.27499	1392.55517	8.96575	226.98617	1385.51256	-339.04640	319.68527	1395.40916	-151.64384	316.77833	1396.66585	-195.81550	347.62887	1262.11148	64.07020	336.37890	1042.29795	23.66707	360.62814	1061.78022	88.68469	472.53966	975.36348	86.85049	554.28600	866.75421	78.24143	534.35055	850.52826	103.48801	229.71494	1266.04259	-395.72057	202.46079	1037.16545	-308.83992	196.01330	1052.07581	-385.64641	262.32002	958.72026	-407.89109	303.96223	809.73280	-426.33516	272.31606	801.96139	-432.43316	305.28668	897.99552	-37.70625	297.18843	890.03223	-243.86671	317.61275	897.68195	-46.18997	297.67113	896.86877	-210.72511	
35	0.34000000	290.60526	492.52372	-40.03041	320.20702	420.17331	-59.83802	211.15925	98.45291	-103.90687	146.52253	69.62328	-150.13256	306.29857	44.18157	-54.95124	364.32980	69.97214	-103.10447	477.17337	531.35651	-323.72356	481.83272	433.32085	-329.13587	308.56058	175.65647	-287.32430	236.93744	169.37943	-231.20869	373.33630	73.70992	-328.67619	429.62962	85.68536	-283.36531	283.09078	309.30482	-48.85121	241.84706	439.14417	-35.04317	211.06292	331.19341	-46.57714	404.13130	478.40827	-322.51229	353.32276	366.77784	-322.09520	376.64567	803.56966	16.35882	366.91869	691.61530	1.67450	308.88722	671.06587	22.59588	264.69720	808.10088	39.58420	256.30969	693.06212	12.95774	391.36735	783.93154	-352.48357	461.02782	665.09650	-342.08854	299.49225	729.96970	-305.37204	374.28595	611.14399	-300.50827	393.93601	978.04632	-19.09212	200.86924	1014.98919	-92.82790	388.37939	962.66182	-269.68344	189.13879	1014.80586	-192.57708	188.69769	1418.02590	-152.14534	315.68405	1392.97248	8.89882	237.35055	1385.67438	-338.71975	330.77086	1395.61936	-151.73173	327.67363	1396.83951	-195.92551	359.80905	1262.91177	63.72022	350.78459	1043.14166	22.95270	374.99133	1062.54413	88.04894	488.68860	978.29964	84.69487	572.73422	871.57138	74.41994	553.36299	854.74144	99.65746	237.94580	1266.16581	-395.00618	208.25393	1038.40923	-305.79698	200.21783	1053.02606	-382.54905	261.85541	957.00453	-406.00752	295.34924	806.44784	-425.40856	263.50111	799.79718	-430.07567	315.47029	897.98484	-37.76966	308.49667	890.44175	-243.98528	328.06285	897.55437	-46.04111	308.70642	897.25257	-210.64785	
36	0.35000000	292.96549	492.72159	-40.44993	321.98540	420.18098	-60.11707	211.37381	98.73125	-104.02697	146.67295	69.67612	-150.17598	306.33315	44.17096	-54.90150	364.40998	69.82608	-103.11226	492.11591	532.74062	-322.68808	500.71901	434.47314	-328.46666	343.25384	166.31272	-286.55646	272.54390	155.52263	-230.09393	414.02731	68.87986	-328.63022	469.94483	84.22014	-283.64895	284.15979	309.62616	-49.04156	243.66686	439.72360	-35.49056	212.38606	331.89957	-47.00576	420.48982	474.89386	-322.01071	376.56586	360.51486	-321.51601	384.52316	802.02959	16.15874	372.58059	690.58567	1.27916	314.45868	670.73264	21.74318	272.60646	808.45121	39.30227	262.14369	693.77242	12.09268	405.16784	785.29771	-352.26951	475.34826	666.92643	-341.27247	312.40095	730.47987	-306.89619	388.12668	611.96168	-301.64995	404.17063	977.58947	-18.54968	211.55597	1014.93680	-93.50984	399.79037	962.76360	-269.19796	200.20462	1014.98955	-193.21067	199.88800	1418.10776	-151.91753	327.10110	1393.04897	8.82337	247.84991	1385.57431	-338.45207	341.90486	1395.53812	-151.82937	338.63643	1396.72235	-196.06105	371.96020	1263.38477	63.38280	364.96189	1043.64628	22.47416	389.22157	1063.01689	87.59675	504.64881	981.02193	82.60708	590.96181	876.24936	70.62811	572.21195	858.82459	95.86237	246.33989	1266.08299	-394.34552	214.20976	1039.45431	-302.95433	204.56220	1053.91482	-379.63159	261.49651	955.47345	-404.14648	286.95228	803.52321	-424.02841	254.74206	798.34922	-427.62612	325.60889	897.69052	-37.90961	319.77409	890.56583	-244.17341	338.41638	897.25288	-45.92046	319.66838	897.34023	-210.60042	
37	0.36000000	295.60386	492.83237	-40.84390	324.00729	420.10309	-60.39696	211.60286	99.00902	-104.14894	146.82931	69.74568	-150.20736	306.36627	44.15501	-54.84887	364.48686	69.65542	-103.13770	506.21046	533.46337	-321.64944	518.89448	435.31418	-327.69935	378.58009	157.24405	-285.72050	309.24867	141.85251	-228.79673	455.10090	64.73081	-328.61789	510.55034	83.51102	-284.04881	285.44572	309.87251	-49.22010	245.77692	440.22695	-35.88537	213.90655	332.56604	-47.36437	436.43348	470.65063	-321.26816	399.77444	353.99080	-320.83886	392.43859	800.40941	15.89695	378.38590	689.50659	0.78908	320.15890	670.30701	20.94246	280.59197	808.64816	38.93328	268.09262	694.33719	11.28661	418.46975	786.05398	-352.10251	488.97800	668.06176	-340.40905	324.93477	730.71243	-308.24689	401.38522	612.33304	-302.66751	414.40944	976.74642	-18.11210	222.32202	1014.75199	-94.25890	411.25645	962.51211	-268.80268	211.36930	1014.96117	-193.91688	211.10431	1417.90588	-151.72907	338.53164	1392.78313	8.73361	258.48280	1385.21797	-338.24705	353.06234	1395.17184	-151.94451	349.66964	1396.32079	-196.22467	384.08405	1263.52527	63.06185	378.93252	1043.79684	22.23317	403.33258	1063.21534	87.28677	520.44209	983.53322	80.57958	608.96315	880.78101	66.87688	590.87191	862.77615	92.13496	254.91801	1265.79487	-393.75451	220.35676	1040.28939	-300.30561	209.06824	1054.72284	-376.88478	261.28647	954.12608	-402.33723	278.90991	800.83006	-422.09977	246.21348	797.54816	-425.15584	335.70738	897.10240	-38.13955	331.01663	890.40625	-244.44529	348.66279	896.78893	-45.84590	330.55813	897.13444	-210.59221	
38	0.37000000	298.54524	492.84337	-41.20595	326.27672	419.93423	-60.66948	211.84447	99.29075	-104.27174	147.00354	69.83644	-150.24178	306.39417	44.13374	-54.79259	364.55949	69.47061	-103.16421	519.42219	533.48040	-320.56082	536.24179	435.87303	-326.83473	414.47765	148.64255	-284.86694	346.98911	128.64768	-227.36044	496.46354	61.40091	-328.64041	551.27583	83.71263	-284.58216	286.95059	310.03199	-49.38932	248.17727	440.65026	-36.24137	215.61326	333.19755	-47.67165	451.90573	465.74533	-320.15898	422.84658	347.30205	-319.99671	400.41888	798.72802	15.56421	384.36277	688.37629	0.21690	326.03524	669.78058	20.20529	288.69186	808.69542	38.49222	274.21681	694.74235	10.55045	431.19650	786.13056	-351.99289	501.87218	668.44054	-339.49975	337.08382	730.58556	-309.39122	413.98674	612.19884	-303.47441	424.67664	975.53008	-17.80332	233.17166	1014.43084	-95.07209	422.76773	961.90608	-268.50564	222.63416	1014.72502	-194.69881	222.35833	1417.41969	-151.58944	349.98482	1392.18443	8.62109	269.24930	1384.61251	-338.10674	364.23365	1394.53583	-152.09065	360.77294	1395.64671	-196.42122	396.17682	1263.33620	62.75768	392.71800	1043.58639	22.21294	417.32596	1063.16290	87.07087	536.07771	985.83558	78.61014	626.72042	885.15746	63.18427	609.30553	866.59725	88.51226	263.68878	1265.30940	-393.25243	226.72009	1040.90930	-297.84761	213.76398	1055.43601	-374.29829	261.26132	952.96360	-400.60984	271.31451	798.34013	-419.68325	238.09489	797.30415	-422.72459	345.78382	896.22964	-38.46640	342.22132	889.96237	-244.80764	358.82121	896.15561	-45.84422	341.39171	896.64156	-210.64047	
39	0.38000000	301.79906	492.74941	-41.53534	328.79160	419.67193	-60.92538	212.10708	99.58189	-104.39329	147.19906	69.96358	-150.28924	306.41472	44.10864	-54.73306	364.63572	69.28069	-103.17787	531.70022	532.75818	-319.37387	552.63555	436.15882	-325.89233	450.81691	140.71129	-284.03156	385.64427	116.20601	-225.80675	537.97745	59.05226	-328.70390	591.89632	85.00222	-285.28722	288.66379	310.10275	-49.55221	250.85254	440.99698	-36.57596	217.49398	333.80035	-47.95252	466.82475	460.26499	-318.57017	445.64082	340.52506	-318.88370	408.49022	796.99750	15.15490	390.55588	687.17267	-0.43878	332.13009	669.15469	19.53223	296.93056	808.60367	38.00802	280.56676	694.98010	9.88921	443.28459	785.47592	-351.93697	513.99899	668.02073	-338.54438	348.81349	730.02204	-310.27115	425.83091	611.51551	-303.98309	435.00196	973.97486	-17.64481	244.11018	1013.96532	-95.94681	434.30725	960.94214	-268.31921	233.99324	1014.28898	-195.55958	233.66711	1416.65456	-151.51205	361.47204	1391.27130	8.47549	280.15141	1383.76708	-338.03222	375.43204	1393.64952	-152.28536	371.94856	1394.71679	-196.65739	408.23517	1262.82943	62.46755	406.33321	1043.01670	22.38400	431.19759	1062.87900	86.91622	551.54647	987.92668	76.70418	644.20639	889.36583	59.57475	627.46869	870.28663	85.03268	272.65203	1264.64111	-392.85710	233.31957	1041.31728	-295.58740	218.67402	1056.05051	-371.86585	261.44513	951.98817	-398.99437	264.20432	796.14515	-416.98575	230.52681	797.53903	-420.35620	355.86312	895.09481	-38.89117	353.38422	889.23192	-245.26085	368.92981	895.33366	-45.94249	352.19000	895.86849	-210.76628	
40	0.39000000	305.36772	492.55475	-41.83829	331.55490	419.31751	-61.15992	212.40778	99.88752	-104.50936	147.41103	70.15176	-150.35154	306.42849	44.08239	-54.67169	364.73033	69.08987	-103.17069	542.99073	531.27226	-318.04479	567.97149	436.15651	-324.90749	487.38977	133.65910	-283.23623	425.02828	104.81599	-224.14629	579.43927	57.86632	-328.82836	632.13369	87.56693	-286.21824	290.57859	310.09335	-49.71288	253.78852	441.27612	-36.90334	219.54782	334.38007	-48.22639	481.11753	454.30476	-316.41427	468.00286	333.72268	-317.36965	416.67803	795.22394	14.66830	397.02413	685.86171	-1.19721	338.47573	668.44530	18.91702	305.32164	808.38872	37.51228	287.17284	695.05339	9.30505	454.68227	784.06189	-351.91713	525.32822	666.77553	-337.55176	360.05856	728.97094	-310.81287	436.82796	610.25884	-304.11754	445.41233	972.12907	-17.65122	255.14057	1013.34411	-96.88121	445.85772	959.62082	-268.26044	245.43778	1013.65577	-196.50113	245.05016	1415.61967	-151.51144	373.00485	1390.06873	8.28501	291.19236	1382.69393	-338.02533	386.68690	1392.53169	-152.54517	383.20545	1393.55130	-196.94081	420.26168	1262.02605	62.18643	419.78466	1042.10080	22.71033	444.94075	1062.37263	86.81745	566.82236	989.80104	74.87479	661.39015	893.39022	56.07749	645.31414	873.83638	81.73229	281.80330	1263.80936	-392.58145	240.16859	1041.52395	-293.54475	223.81283	1056.57433	-369.58771	261.85392	951.20155	-397.51950	257.58166	794.40876	-414.28083	223.58882	798.20242	-418.03356	365.97439	893.72721	-39.41051	364.50569	888.21269	-245.80114	379.03210	894.30464	-46.16204	362.97719	894.81981	-210.99207	
